#!OML:ASF F:\VICON\USERDATA\INSTALL\rory3\rory3.ASF
:FULLY-SPECIFIED
:DEGREES
1317
root -4.13436 18.724 -2.5936 -179.357 -135.9 179.535
lowerback 6.93996 2.57879 -1.67171
upperback -6.55103 3.21791 -0.222509
thorax -11.0043 1.65308 0.172625
lowerneck -19.5031 -6.18932 -14.2829
upperneck -2.75326 -5.62751 12.4172
head 3.02816 -2.222 5.71867
rclavicle 9.34288e-015 5.1684e-015
rhumerus 90.7136 -29.6288 -34.4771
rradius 30.3719
rwrist 15.6511
rhand -23.4739 -5.55727
rfingers 7.12502
rthumb 2.98544 -35.5161
lclavicle 9.34288e-015 5.1684e-015
lhumerus 75.4279 31.0519 13.798
lradius 43.803
lwrist -0.525747
lhand -5.412 12.8571
lfingers 7.12502
lthumb 20.3975 41.8058
rfemur -1.60201 -12.9532 21.3181
rtibia 38.8099
rfoot 18.5504 -17.1888
rtoes 18.2561
lfemur -17.6643 -7.25614 -20.4239
ltibia 34.4356
lfoot 12.6828 -11.1288
ltoes -25.5362
1318
root -4.17017 18.6941 -2.56866 -179.866 -135.553 179.533
lowerback 7.4167 2.53037 -1.96173
upperback -6.4641 3.13395 0.0168306
thorax -11.2265 1.64632 0.585521
lowerneck -19.3747 -6.09153 -14.3311
upperneck -2.69963 -5.50282 12.3072
head 3.00525 -2.16938 5.70437
rclavicle -8.03587e-014 -4.17448e-015
rhumerus 89.9587 -29.2062 -33.471
rradius 30.5445
rwrist 14.8654
rhand -22.9293 -5.36541
rfingers 7.12502
rthumb 3.51138 -35.3162
lclavicle -8.03587e-014 -4.17448e-015
lhumerus 76.0328 31.3317 15.1366
lradius 43.1941
lwrist -2.80839
lhand -6.17382 13.3183
lfingers 7.12502
lthumb 19.6653 42.3437
rfemur -1.6473 -13.6035 20.6996
rtibia 40.4921
rfoot 19.0734 -16.2131
rtoes 18.7845
lfemur -16.6283 -7.32788 -20.5533
ltibia 34.3963
lfoot 10.9416 -10.8732
ltoes -24.9696
1319
root -4.20874 18.6655 -2.54785 -180.37 -135.236 179.657
lowerback 7.85278 2.46409 -2.37154
upperback -6.37506 3.00448 0.212498
thorax -11.4237 1.62608 1.03098
lowerneck -19.531 -6.02726 -14.5695
upperneck -2.40947 -5.37559 12.5823
head 3.11868 -2.09011 5.84265
rclavicle -4.47266e-014 -1.39149e-015
rhumerus 89.5807 -28.7152 -32.9655
rradius 30.6616
rwrist 14.2287
rhand -22.3173 -5.34162
rfingers 7.12502
rthumb 4.10236 -35.2819
lclavicle -4.47266e-014 -1.39149e-015
lhumerus 76.5276 31.7566 16.2886
lradius 42.6555
lwrist -4.73374
lhand -7.11537 13.7423
lfingers 7.12502
lthumb 18.7599 42.8577
rfemur -1.88201 -14.0534 20.0379
rtibia 42.269
rfoot 19.3664 -15.478
rtoes 19.4079
lfemur -15.6619 -7.22384 -20.7179
ltibia 34.2266
lfoot 9.29352 -10.7876
ltoes -22.6792
1320
root -4.24784 18.6396 -2.52949 -180.73 -134.952 179.619
lowerback 8.2513 2.37266 -2.58524
upperback -6.22218 2.86299 0.375684
thorax -11.5088 1.5828 1.34002
lowerneck -19.3476 -6.0373 -14.7228
upperneck -2.80002 -5.36775 12.7212
head 2.98246 -2.08639 5.91774
rclavicle -9.94917e-014 -1.30204e-014
rhumerus 89.0164 -28.5251 -32.1501
rradius 31.0368
rwrist 13.0676
rhand -21.6306 -5.59893
rfingers 7.12502
rthumb 4.76548 -35.5253
lclavicle -9.94917e-014 -1.30204e-014
lhumerus 77.2001 32.2981 17.4501
lradius 41.97
lwrist -6.27604
lhand -8.36442 14.0068
lfingers 7.12502
lthumb 17.5582 43.2339
rfemur -2.25326 -14.6141 19.4964
rtibia 44.1362
rfoot 20.0174 -14.5335
rtoes 19.0298
lfemur -14.6738 -7.05271 -20.7379
ltibia 33.9746
lfoot 7.61347 -11.0994
ltoes -27.6187
1321
root -4.28251 18.6172 -2.51378 -180.821 -134.747 179.547
lowerback 8.44971 2.27 -2.66294
upperback -6.08162 2.72192 0.476911
thorax -11.4728 1.52533 1.51491
lowerneck -20.5227 -6.02438 -15.4396
upperneck -1.73571 -5.15808 13.9245
head 3.52418 -1.89047 6.44182
rclavicle 2.01269e-014 -2.98177e-015
rhumerus 88.4003 -28.556 -31.2845
rradius 31.499
rwrist 12.1327
rhand -18.0431 0.867299
rfingers 7.12502
rthumb 8.2287 -28.9525
lclavicle 2.01269e-014 -2.98177e-015
lhumerus 78.2998 32.7837 19.1228
lradius 41.2241
lwrist -7.72885
lhand -9.59969 14.4163
lfingers 7.12502
lthumb 16.3691 43.7456
rfemur -3.01724 -15.0496 19.1264
rtibia 46.0658
rfoot 20.5537 -13.4556
rtoes 18.5417
lfemur -14.0422 -6.97535 -20.6828
ltibia 33.6683
lfoot 6.49994 -11.0468
ltoes -28.393
1322
root -4.31346 18.5964 -2.49732 -180.8 -134.563 179.398
lowerback 8.59647 2.13665 -2.58415
upperback -5.99418 2.55912 0.560983
thorax -11.4537 1.44454 1.58895
lowerneck -19.8777 -5.89023 -15.0725
upperneck -3.04913 -5.05288 13.4821
head 2.98635 -1.88454 6.25472
rclavicle -8.52786e-014 -1.31198e-014
rhumerus 88.3641 -28.3242 -31.3757
rradius 31.7719
rwrist 11.9339
rhand -18.2079 -5.29432
rfingers 7.12502
rthumb 8.06969 -35.1202
lclavicle -8.52786e-014 -1.31198e-014
lhumerus 79.2349 33.1732 20.5645
lradius 40.5445
lwrist -8.58269
lhand -10.7881 15.0601
lfingers 7.12502
lthumb 15.2246 44.4799
rfemur -3.90173 -15.3673 18.8574
rtibia 47.9872
rfoot 20.9022 -12.7518
rtoes 18.6875
lfemur -13.5509 -7.06794 -20.5594
ltibia 33.3566
lfoot 5.65783 -10.7175
ltoes -25.9808
1323
root -4.345 18.5802 -2.47684 -180.94 -134.292 179.343
lowerback 8.8372 2.04888 -2.54638
upperback -5.93217 2.45067 0.652739
thorax -11.5262 1.39415 1.68106
lowerneck -19.7948 -5.86592 -15.3365
upperneck -3.43486 -4.96869 13.8201
head 2.86802 -1.83205 6.42097
rclavicle -4.4329e-014 -1.26228e-014
rhumerus 88.2908 -28.0647 -31.3655
rradius 32.1089
rwrist 11.9727
rhand -16.2336 -4.00301
rfingers 7.12502
rthumb 9.97483 -33.7467
lclavicle -4.4329e-014 -1.26228e-014
lhumerus 80.0747 33.4451 21.8976
lradius 39.7978
lwrist -8.84402
lhand -12.0064 15.5651
lfingers 7.12502
lthumb 14.0509 45.0701
rfemur -4.70168 -15.6968 18.4441
rtibia 49.869
rfoot 21.3641 -11.9034
rtoes 18.3591
lfemur -12.8821 -7.2784 -20.5816
ltibia 33.0155
lfoot 4.88745 -10.1152
ltoes -26.2985
1324
root -4.37688 18.5715 -2.45139 -181.069 -133.908 179.174
lowerback 9.07471 2.033 -2.38682
upperback -5.8111 2.45897 0.756894
thorax -11.5304 1.38973 1.69744
lowerneck -20.2034 -5.90131 -15.4731
upperneck -3.20303 -4.95255 14.0003
head 3.00645 -1.80298 6.50152
rclavicle 2.17421e-015 1.09332e-015
rhumerus 87.7661 -28.1207 -30.7811
rradius 32.7029
rwrist 11.8743
rhand -14.1968 -2.92897
rfingers 7.12502
rthumb 11.9393 -32.5685
lclavicle 2.17421e-015 1.09332e-015
lhumerus 80.9836 33.7259 23.1291
lradius 39.0195
lwrist -8.42731
lhand -13.3044 15.875
lfingers 7.12502
lthumb 12.7998 45.4626
rfemur -5.428 -15.9674 18.0721
rtibia 51.687
rfoot 21.4102 -11.4956
rtoes 17.0977
lfemur -12.0576 -7.53347 -20.5695
ltibia 32.6042
lfoot 4.53978 -8.98533
ltoes -29.0362
1325
root -4.40489 18.5657 -2.42629 -181.229 -133.474 179.072
lowerback 9.31567 2.04062 -2.16332
upperback -5.699 2.50459 0.822895
thorax -11.5435 1.39634 1.62899
lowerneck -20.0386 -5.92707 -15.2274
upperneck -3.55446 -5.03035 13.6574
head 2.86471 -1.86425 6.34227
rclavicle -1.39708e-014 -1.18774e-014
rhumerus 87.1216 -28.2055 -29.9626
rradius 33.3232
rwrist 10.8945
rhand -12.4324 -1.356
rfingers 7.12502
rthumb 13.6403 -30.8891
lclavicle -1.39708e-014 -1.18774e-014
lhumerus 82.0293 33.9113 24.515
lradius 38.1272
lwrist -8.01843
lhand -14.6784 16.1889
lfingers 7.12502
lthumb 11.4749 45.8548
rfemur -6.18173 -16.0753 17.6696
rtibia 53.4175
rfoot 20.8833 -11.6603
rtoes 13.4198
lfemur -11.2761 -7.65381 -20.6115
ltibia 32.1433
lfoot 4.22775 -7.93644
ltoes -30.2834
